<svg width="200" height="200" viewBox="0 0 200 200" fill="none" xmlns="http://www.w3.org/2000/svg">
<rect width="200" height="200" fill="white"/>
<rect width="200" height="200" fill="#6159FD"/>
<path d="M80.9375 127.374L73.3125 119.745L67.9331 125.121L80.9375 138.125L103.812 115.25L98.4369 109.874L80.9375 127.374ZM145.75 153.375H130.5V145.75H145.75V100H130.5V69.5C130.495 65.457 128.887 61.581 126.028 58.7222C123.169 55.8634 119.293 54.255 115.25 54.25V46.625C121.315 46.6321 127.129 49.0444 131.417 53.3327C135.706 57.6211 138.118 63.4353 138.125 69.5V92.375H145.75C147.772 92.375 149.712 93.1783 151.142 94.6083C152.572 96.0383 153.375 97.9777 153.375 100V145.75C153.375 147.772 152.572 149.712 151.142 151.142C149.712 152.572 147.772 153.375 145.75 153.375Z" fill="#1B1F22"/>
<path d="M115.25 92.375H107.625V69.5C107.625 63.4332 105.215 57.6148 100.925 53.3249C96.6352 49.035 90.8168 46.625 84.75 46.625C78.6832 46.625 72.8648 49.035 68.5749 53.3249C64.285 57.6148 61.875 63.4332 61.875 69.5V92.375H54.25C52.2277 92.375 50.2883 93.1783 48.8583 94.6083C47.4283 96.0383 46.625 97.9777 46.625 100V145.75C46.625 147.772 47.4283 149.712 48.8583 151.142C50.2883 152.572 52.2277 153.375 54.25 153.375H115.25C117.272 153.375 119.212 152.572 120.642 151.142C122.072 149.712 122.875 147.772 122.875 145.75V100C122.875 97.9777 122.072 96.0383 120.642 94.6083C119.212 93.1783 117.272 92.375 115.25 92.375ZM69.5 69.5C69.5 65.4554 71.1067 61.5766 73.9666 58.7166C76.8266 55.8567 80.7054 54.25 84.75 54.25C88.7946 54.25 92.6734 55.8567 95.5334 58.7166C98.3933 61.5766 100 65.4554 100 69.5V92.375H69.5V69.5ZM115.25 145.75H54.25V100H115.25V145.75Z" fill="#1B1F22"/>
</svg>
